<svg width="138" height="24" viewBox="0 0 138 24" fill="none" xmlns="http://www.w3.org/2000/svg">
<g clip-path="url(#clip0_8_2)">
<path fill-rule="evenodd" clip-rule="evenodd" d="M1.33333 5.33333H5.7778V9.7778H10.2222V14.2222H14.6667V18.6667H1.33333V5.33333Z" fill="#0D141C"/>
</g>
<path d="M44.6882 9.99219H41.8885C41.8374 9.62997 41.733 9.30824 41.5753 9.02699C41.4176 8.74148 41.2152 8.49858 40.968 8.2983C40.7209 8.09801 40.4354 7.9446 40.1115 7.83807C39.7919 7.73153 39.4446 7.67827 39.0696 7.67827C38.392 7.67827 37.8018 7.84659 37.299 8.18324C36.7962 8.51562 36.4063 9.00142 36.1293 9.64062C35.8523 10.2756 35.7138 11.0469 35.7138 11.9545C35.7138 12.8878 35.8523 13.6719 36.1293 14.3068C36.4105 14.9418 36.8026 15.4212 37.3054 15.745C37.8082 16.0689 38.3899 16.2308 39.0504 16.2308C39.4212 16.2308 39.7642 16.1818 40.0795 16.0838C40.3991 15.9858 40.6825 15.843 40.9297 15.6555C41.1768 15.4638 41.3814 15.2315 41.5433 14.9588C41.7095 14.6861 41.8246 14.375 41.8885 14.0256L44.6882 14.0384C44.6158 14.6392 44.4347 15.2188 44.1449 15.777C43.8594 16.331 43.4737 16.8274 42.9879 17.2663C42.5064 17.701 41.9311 18.0462 41.2621 18.3018C40.5973 18.5533 39.8452 18.679 39.0057 18.679C37.8381 18.679 36.794 18.4148 35.8736 17.8864C34.9574 17.358 34.233 16.593 33.7003 15.5916C33.1719 14.5902 32.9077 13.3778 32.9077 11.9545C32.9077 10.527 33.1761 9.3125 33.7131 8.31108C34.25 7.30966 34.9787 6.54687 35.8991 6.02273C36.8196 5.49432 37.8551 5.23011 39.0057 5.23011C39.7642 5.23011 40.4673 5.33665 41.1151 5.54972C41.767 5.76278 42.3445 6.07386 42.8473 6.48295C43.3501 6.88778 43.7592 7.38423 44.0746 7.9723C44.3942 8.56037 44.5987 9.23366 44.6882 9.99219ZM51.0579 18.6918C50.065 18.6918 49.2063 18.4808 48.4819 18.0589C47.7617 17.6328 47.2056 17.0405 46.8136 16.282C46.4215 15.5192 46.2255 14.6349 46.2255 13.6293C46.2255 12.6151 46.4215 11.7287 46.8136 10.9702C47.2056 10.2074 47.7617 9.61506 48.4819 9.19318C49.2063 8.76705 50.065 8.55398 51.0579 8.55398C52.0508 8.55398 52.9073 8.76705 53.6275 9.19318C54.3519 9.61506 54.9102 10.2074 55.3022 10.9702C55.6942 11.7287 55.8903 12.6151 55.8903 13.6293C55.8903 14.6349 55.6942 15.5192 55.3022 16.282C54.9102 17.0405 54.3519 17.6328 53.6275 18.0589C52.9073 18.4808 52.0508 18.6918 51.0579 18.6918ZM51.0707 16.5824C51.5224 16.5824 51.8995 16.4545 52.2021 16.1989C52.5046 15.9389 52.7326 15.5852 52.886 15.1378C53.0437 14.6903 53.1225 14.1811 53.1225 13.6101C53.1225 13.0391 53.0437 12.5298 52.886 12.0824C52.7326 11.6349 52.5046 11.2812 52.2021 11.0213C51.8995 10.7614 51.5224 10.6314 51.0707 10.6314C50.6147 10.6314 50.2312 10.7614 49.9201 11.0213C49.6133 11.2812 49.381 11.6349 49.2234 12.0824C49.07 12.5298 48.9933 13.0391 48.9933 13.6101C48.9933 14.1811 49.07 14.6903 49.2234 15.1378C49.381 15.5852 49.6133 15.9389 49.9201 16.1989C50.2312 16.4545 50.6147 16.5824 51.0707 16.5824ZM60.3839 12.8239V18.5H57.6609V8.68182H60.256V10.4141H60.3711C60.5884 9.84304 60.9528 9.39133 61.4641 9.05895C61.9755 8.7223 62.5955 8.55398 63.3242 8.55398C64.006 8.55398 64.6005 8.70312 65.1076 9.00142C65.6147 9.29972 66.0089 9.72585 66.2901 10.2798C66.5714 10.8295 66.712 11.4858 66.712 12.2486V18.5H63.989V12.7344C63.9933 12.1335 63.8398 11.6648 63.5288 11.3281C63.2177 10.9872 62.7894 10.8168 62.244 10.8168C61.8775 10.8168 61.5536 10.8956 61.2724 11.0533C60.9954 11.2109 60.7781 11.4411 60.6204 11.7436C60.467 12.0419 60.3881 12.402 60.3839 12.8239ZM71.5811 12.8239V18.5H68.8581V8.68182H71.4533V10.4141H71.5684C71.7857 9.84304 72.15 9.39133 72.6614 9.05895C73.1728 8.7223 73.7928 8.55398 74.5215 8.55398C75.2033 8.55398 75.7978 8.70312 76.3049 9.00142C76.812 9.29972 77.2061 9.72585 77.4874 10.2798C77.7686 10.8295 77.9093 11.4858 77.9093 12.2486V18.5H75.1863V12.7344C75.1905 12.1335 75.0371 11.6648 74.726 11.3281C74.415 10.9872 73.9867 10.8168 73.4412 10.8168C73.0748 10.8168 72.7509 10.8956 72.4696 11.0533C72.1926 11.2109 71.9753 11.4411 71.8176 11.7436C71.6642 12.0419 71.5854 12.402 71.5811 12.8239ZM84.5298 18.6918C83.5199 18.6918 82.6506 18.4872 81.9219 18.0781C81.1974 17.6648 80.6392 17.081 80.2472 16.3267C79.8551 15.5682 79.6591 14.6712 79.6591 13.6357C79.6591 12.6257 79.8551 11.7393 80.2472 10.9766C80.6392 10.2138 81.1911 9.61932 81.9027 9.19318C82.6186 8.76705 83.4581 8.55398 84.4212 8.55398C85.0689 8.55398 85.6719 8.65838 86.2301 8.86719C86.7926 9.07173 87.2827 9.38068 87.7003 9.79403C88.1222 10.2074 88.4503 10.7273 88.6847 11.3537C88.919 11.9759 89.0362 12.7045 89.0362 13.5398V14.2876H80.7457V12.6001H86.473C86.473 12.2081 86.3878 11.8608 86.2173 11.5582C86.0469 11.2557 85.8104 11.0192 85.5078 10.8487C85.2095 10.674 84.8622 10.5866 84.4659 10.5866C84.0526 10.5866 83.6861 10.6825 83.3665 10.8743C83.0511 11.0618 82.804 11.3153 82.625 11.6349C82.446 11.9503 82.3544 12.3018 82.3501 12.6896V14.294C82.3501 14.7798 82.4396 15.1996 82.6186 15.5533C82.8018 15.907 83.0597 16.1797 83.392 16.3714C83.7244 16.5632 84.1186 16.6591 84.5746 16.6591C84.8771 16.6591 85.1541 16.6165 85.4055 16.5312C85.657 16.446 85.8722 16.3182 86.0511 16.1477C86.2301 15.9773 86.3665 15.7685 86.4602 15.5213L88.9787 15.6875C88.8509 16.2926 88.5888 16.821 88.1925 17.2727C87.8004 17.7202 87.2933 18.0696 86.6712 18.321C86.0533 18.5682 85.3395 18.6918 84.5298 18.6918ZM95.2493 18.6918C94.2436 18.6918 93.3786 18.4787 92.6541 18.0526C91.9339 17.6222 91.38 17.0256 90.9922 16.2628C90.6087 15.5 90.4169 14.6222 90.4169 13.6293C90.4169 12.6236 90.6108 11.7415 90.9986 10.983C91.3906 10.2202 91.9467 9.62571 92.6669 9.19957C93.3871 8.76918 94.2436 8.55398 95.2365 8.55398C96.093 8.55398 96.843 8.70952 97.4865 9.0206C98.13 9.33168 98.6392 9.76847 99.0142 10.331C99.3892 10.8935 99.5959 11.554 99.6342 12.3125H97.0646C96.9922 11.8224 96.8004 11.4283 96.4893 11.13C96.1825 10.8274 95.7798 10.6761 95.2812 10.6761C94.8594 10.6761 94.4908 10.7912 94.1754 11.0213C93.8643 11.2472 93.6214 11.5774 93.4467 12.0121C93.272 12.4467 93.1847 12.973 93.1847 13.5909C93.1847 14.2173 93.2699 14.75 93.4403 15.1889C93.6151 15.6278 93.8601 15.9624 94.1754 16.1925C94.4908 16.4226 94.8594 16.5376 95.2812 16.5376C95.5923 16.5376 95.8714 16.4737 96.1186 16.3459C96.37 16.218 96.5767 16.0327 96.7386 15.7898C96.9048 15.5426 97.0135 15.2464 97.0646 14.9013H99.6342C99.5916 15.6513 99.3871 16.3118 99.0206 16.8828C98.6584 17.4496 98.1577 17.8928 97.5185 18.2124C96.8793 18.532 96.1229 18.6918 95.2493 18.6918ZM106.6 8.68182V10.7273H100.687V8.68182H106.6ZM102.03 6.32955H104.753V15.483C104.753 15.7344 104.791 15.9304 104.868 16.071C104.944 16.2074 105.051 16.3033 105.187 16.3587C105.328 16.4141 105.49 16.4418 105.673 16.4418C105.801 16.4418 105.929 16.4311 106.057 16.4098C106.184 16.3842 106.282 16.3651 106.351 16.3523L106.779 18.3786C106.643 18.4212 106.451 18.4702 106.204 18.5256C105.956 18.5852 105.656 18.6214 105.302 18.6342C104.646 18.6598 104.071 18.5724 103.577 18.3722C103.086 18.1719 102.705 17.8608 102.432 17.4389C102.16 17.017 102.025 16.4844 102.03 15.8409V6.32955ZM108.636 5.40909H112.049L115.654 14.2045H115.808L119.413 5.40909H122.826V18.5H120.142V9.9794H120.033L116.645 18.4361H114.817L111.429 9.94744H111.32V18.5H108.636V5.40909ZM129.747 18.5H125.107V5.40909H129.786C131.102 5.40909 132.236 5.67116 133.186 6.19531C134.136 6.7152 134.867 7.46307 135.379 8.43892C135.894 9.41477 136.152 10.5824 136.152 11.9418C136.152 13.3054 135.894 14.4773 135.379 15.4574C134.867 16.4375 134.132 17.1896 133.173 17.7138C132.219 18.2379 131.077 18.5 129.747 18.5ZM127.874 16.1286H129.632C130.45 16.1286 131.138 15.9837 131.697 15.6939C132.259 15.3999 132.681 14.946 132.962 14.3324C133.248 13.7145 133.391 12.9176 133.391 11.9418C133.391 10.9744 133.248 10.1839 132.962 9.57031C132.681 8.95668 132.261 8.50497 131.703 8.2152C131.145 7.92543 130.457 7.78054 129.638 7.78054H127.874V16.1286Z" fill="#0D141C"/>
<defs>
<clipPath id="clip0_8_2">
<rect width="16" height="16" fill="white" transform="translate(0 4)"/>
</clipPath>
</defs>
</svg>
